<svg xmlns="http://www.w3.org/2000/svg" xmlns:xlink="http://www.w3.org/1999/xlink" width="1704" height="371" fill="none" xmlns:v="https://vecta.io/nano"><style><![CDATA[.B{stroke:#4f46e5}.C{stroke:#a5b4fc}.D{stroke:#e0e7ff}]]></style><g opacity=".15" stroke-width="2" stroke-linecap="round"><path d="M374.605 4.2666L401.524 13.2495" stroke="url(#A)"/><path d="M27.5012 67.9634L77.0875 75.313" stroke="url(#B)"/><path d="M6.25 135.743L34.585 136.56" stroke="url(#C)"/><path d="M44.5024 137.376L75.6709 138.193" stroke="url(#D)"/><path d="M190.428 357.049L214.513 350.516" stroke="url(#E)"/><path d="M240.014 344.8L264.099 338.267" stroke="url(#F)"/><path d="M436.942 341.533L455.36 333.367" stroke="url(#G)"/><path d="M652.289 339.9L665.748 329.284" stroke="url(#H)"/><path d="M676.02 320.301L689.48 309.685" stroke="url(#I)"/><path d="M478.028 326.017L496.446 317.851" stroke="url(#J)"/><path d="M54.4192 299.885L84.8798 295.802" stroke="url(#K)"/><path d="M303.059 147.993l-57.378-3.267" class="B"/><path d="M372.48 152.076l-57.378-3.267" class="C"/><path d="M441.901 156.159l-57.378-3.266" class="D"/><path d="M443.206 134.877l-56.249-7.3" class="B"/><path d="M511.233 143.84l-56.249-7.3" class="C"/><path d="M579.26 152.802l-56.25-7.3" class="D"/><path d="M609.273 39.223l-40.729-23.524" class="B"/><path d="M658.405 67.786l-40.729-23.524" class="C"/><path d="M707.537 96.348L666.808 72.824" class="D"/><path d="M148.002 118.243l-56.901-5.365" class="B"/><path d="M216.831 124.865L159.93 119.5" class="C"/><path d="M285.661 131.486l-56.902-5.365" class="D"/><path d="M82.14 14.715L29.621 1" class="B"/><path d="M145.609 31.432L93.09 17.717" class="C"/><path d="M209.077 48.149l-52.519-13.715" class="D"/><path d="M118.446 249.824l-56.942 5.219" class="B"/><path d="M187.396 243.636l-56.942 5.219" class="C"/><path d="M256.347 237.449l-56.943 5.219" class="D"/><path d="M54.443 352.758L2 366.569" class="B"/><path d="M118.008 336.162l-52.443 13.811" class="C"/><path d="M181.572 319.566l-52.443 13.811" class="D"/><path d="M594.107 330.904l-39.574 24.17" class="B"/><path d="M642.166 301.741l-39.574 24.17" class="C"/><path d="M690.225 272.579l-39.574 24.17" class="D"/><path d="M691.228 340.548l-27.606 29.178" class="B"/><path d="M724.836 305.298l-27.605 29.177" class="C"/><path d="M758.444 270.047l-27.605 29.178" class="D"/><path d="M1400.94 147.993l57.38-3.267" class="B"/><path d="M1331.52 152.076l57.38-3.267" class="C"/><path d="M1262.1 156.159l57.38-3.266" class="D"/><path d="M1260.79 134.877l56.25-7.3" class="B"/><path d="M1192.77 143.84l56.25-7.3" class="C"/><path d="M1124.74 152.802l56.25-7.3" class="D"/><path d="M1094.73 39.223l40.73-23.524" class="B"/><path d="M1045.59 67.786l40.73-23.524" class="C"/><path d="M996.463 96.348l40.727-23.524" class="D"/><path d="M1556 118.243l56.9-5.365" class="B"/><path d="M1487.17 124.865l56.9-5.365" class="C"/><path d="M1418.34 131.486l56.9-5.365" class="D"/><g class="B"><path d="M1536.86 134.964l41.28-3.304m43.72-116.945L1674.38 1"/></g><path d="M1558.39 31.432l52.52-13.715" class="C"/><path d="M1494.92 48.149l52.52-13.715" class="D"/><path d="M1340.96 84.944l52.52-13.715" class="B"/><path d="M1277.49 101.662l52.52-13.715" class="C"/><path d="M1267.83 57.884l31-8.094" class="B"/><path d="M1230.38 67.75l30.99-8.094" class="C"/><path d="M1646.85 224.938l33.93 1.405" class="B"/><path d="M1605.76 223.314l33.94 1.405" class="C"/><path d="M1645.44 73.58l33.31-3.983" class="B"/><path d="M1605.14 78.476l33.32-3.983" class="C"/><path d="M1522.12 72.632l32.79-5.241" class="B"/><path d="M1482.47 79.049l32.79-5.241" class="C"/><path d="M1585.55 249.824l56.95 5.219" class="B"/><path d="M1516.6 243.636l56.95 5.219" class="C"/><path d="M1447.65 237.449l56.95 5.219" class="D"/><path d="M1649.56 352.758L1702 366.569" class="B"/><path d="M1585.99 336.162l52.45 13.811" class="C"/><path d="M1522.43 319.566l52.44 13.811" class="D"/><path d="M1109.89 330.904l39.58 24.17" class="B"/><path d="M1061.83 301.741l39.58 24.17" class="C"/><path d="M1013.78 272.579l39.57 24.17" class="D"/><path d="M1508.88 347.561l50.98 15.531" class="B"/><path d="M1447.09 328.879l50.97 15.531" class="C"/><path d="M1012.77 340.548l27.61 29.178" class="B"/><path d="M979.164 305.298l27.606 29.177" class="C"/><path d="M945.556 270.047l27.605 29.178" class="D"/><path d="M849.217 60.2053V77.3545" stroke="url(#L)"/><path d="M965.391 5.89966L942.722 35.2982" stroke="url(#M)"/><path d="M1257.24 35.2983L1238.82 41.8313" stroke="url(#N)"/><path d="M1235.99 43.4646L1211.91 50.8142" stroke="url(#O)"/></g><defs><linearGradient id="A" x1="374.96" y1="3.914" x2="392.851" y2="21.884" xlink:href="#P"><stop stop-color="#4f46e5"/><stop offset="1" stop-color="#fff" stop-opacity="0"/></linearGradient><linearGradient id="B" x1="27.705" y1="67.507" x2="71.795" y2="87.176" xlink:href="#P"><stop stop-color="#4f46e5"/><stop offset="1" stop-color="#fff" stop-opacity="0"/></linearGradient><linearGradient id="C" x1="6.293" y1="135.245" x2="34.487" y2="137.691" xlink:href="#P"><stop stop-color="#4f46e5"/><stop offset="1" stop-color="#fff" stop-opacity="0"/></linearGradient><linearGradient id="D" x1="44.542" y1="136.878" x2="75.582" y2="139.326" xlink:href="#P"><stop stop-color="#4f46e5"/><stop offset="1" stop-color="#fff" stop-opacity="0"/></linearGradient><linearGradient id="E" x1="190.112" y1="356.662" x2="207.764" y2="342.25" xlink:href="#P"><stop stop-color="#4f46e5"/><stop offset="1" stop-color="#fff" stop-opacity="0"/></linearGradient><linearGradient id="F" x1="239.698" y1="344.412" x2="257.35" y2="330.001" xlink:href="#P"><stop stop-color="#4f46e5"/><stop offset="1" stop-color="#fff" stop-opacity="0"/></linearGradient><linearGradient id="G" x1="436.542" y1="341.233" x2="447.084" y2="327.165" xlink:href="#P"><stop stop-color="#4f46e5"/><stop offset="1" stop-color="#fff" stop-opacity="0"/></linearGradient><linearGradient id="H" x1="651.857" y1="339.576" x2="662.398" y2="325.508" xlink:href="#P"><stop stop-color="#4f46e5"/><stop offset="1" stop-color="#fff" stop-opacity="0"/></linearGradient><linearGradient id="I" x1="675.588" y1="319.977" x2="686.13" y2="305.909" xlink:href="#P"><stop stop-color="#4f46e5"/><stop offset="1" stop-color="#fff" stop-opacity="0"/></linearGradient><linearGradient id="J" x1="477.628" y1="325.717" x2="488.17" y2="311.649" xlink:href="#P"><stop stop-color="#4f46e5"/><stop offset="1" stop-color="#fff" stop-opacity="0"/></linearGradient><linearGradient id="K" x1="54.118" y1="299.516" x2="71.77" y2="285.104" xlink:href="#P"><stop stop-color="#4f46e5"/><stop offset="1" stop-color="#fff" stop-opacity="0"/></linearGradient><linearGradient id="L" x1="849.717" y1="60.205" x2="849.717" y2="77.355" xlink:href="#P"><stop stop-color="#4f46e5"/><stop offset="1" stop-color="#fff" stop-opacity="0"/></linearGradient><linearGradient id="M" x1="965.875" y1="6.024" x2="957.411" y2="39.061" xlink:href="#P"><stop stop-color="#4f46e5"/><stop offset="1" stop-color="#fff" stop-opacity="0"/></linearGradient><linearGradient id="N" x1="1257.61" y1="35.64" x2="1245.74" y2="48.309" xlink:href="#P"><stop stop-color="#4f46e5"/><stop offset="1" stop-color="#fff" stop-opacity="0"/></linearGradient><linearGradient id="O" x1="1236.33" y1="43.833" x2="1219.6" y2="59.195" xlink:href="#P"><stop stop-color="#4f46e5"/><stop offset="1" stop-color="#fff" stop-opacity="0"/></linearGradient><linearGradient id="P" gradientUnits="userSpaceOnUse"/></defs></svg>