<svg width="207" height="320" viewBox="0 0 207 320" fill="none" xmlns="http://www.w3.org/2000/svg">
<path d="M158 0L0 187.5H93L48.5 319.5L207 131.5H114.5L158 0Z" fill="#D9D9D9"/>
<path d="M82.1733 144.455L89.5561 167.662H89.8395L97.2372 144.455H104.396L93.8665 175H85.544L74.9993 144.455H82.1733ZM124.643 153.239C124.524 152.036 124.012 151.102 123.107 150.435C122.202 149.769 120.974 149.436 119.423 149.436C118.369 149.436 117.479 149.585 116.753 149.884C116.027 150.172 115.471 150.575 115.083 151.092C114.705 151.609 114.516 152.195 114.516 152.852C114.496 153.398 114.61 153.876 114.859 154.283C115.118 154.691 115.471 155.044 115.918 155.342C116.365 155.631 116.882 155.884 117.469 156.103C118.056 156.312 118.682 156.491 119.348 156.64L122.093 157.296C123.425 157.594 124.648 157.992 125.762 158.489C126.875 158.987 127.84 159.598 128.655 160.324C129.471 161.05 130.102 161.905 130.549 162.889C131.007 163.874 131.24 165.002 131.25 166.275C131.24 168.144 130.763 169.765 129.819 171.137C128.884 172.499 127.532 173.558 125.762 174.314C124.002 175.06 121.879 175.433 119.393 175.433C116.927 175.433 114.779 175.055 112.95 174.299C111.13 173.543 109.708 172.425 108.684 170.943C107.67 169.452 107.138 167.607 107.088 165.41H113.338C113.407 166.434 113.701 167.289 114.218 167.975C114.745 168.651 115.446 169.163 116.321 169.511C117.206 169.849 118.205 170.018 119.319 170.018C120.412 170.018 121.362 169.859 122.167 169.541C122.983 169.223 123.614 168.781 124.061 168.214C124.509 167.647 124.733 166.996 124.733 166.26C124.733 165.574 124.529 164.997 124.121 164.53C123.723 164.062 123.137 163.665 122.361 163.337C121.596 163.009 120.656 162.71 119.542 162.442L116.216 161.607C113.641 160.98 111.608 160.001 110.116 158.668C108.625 157.336 107.884 155.541 107.894 153.284C107.884 151.435 108.376 149.819 109.37 148.437C110.375 147.055 111.752 145.976 113.502 145.2C115.252 144.425 117.24 144.037 119.468 144.037C121.735 144.037 123.713 144.425 125.404 145.2C127.104 145.976 128.426 147.055 129.371 148.437C130.316 149.819 130.803 151.42 130.833 153.239H124.643Z" fill="black"/>
</svg>
